<?xml version="1.0" encoding="utf-8"?>
<!-- Generator: Adobe Illustrator 20.0.0, SVG Export Plug-In . SVG Version: 6.00 Build 0)  -->
<svg version="1.1" id="Layer_1" xmlns="http://www.w3.org/2000/svg" xmlns:xlink="http://www.w3.org/1999/xlink" x="0px" y="0px"
   viewBox="0 0 612 792" enable-background="new 0 0 612 792" xml:space="preserve">
<path fill="#c26fc2" d="M181.1,543.5c14.5-7.4,23-19.5,27.6-34.9c2-6.6,4.1-13.2,7.1-19.3c6.9-13.9,14.4-27.5,21.8-41.2
  c0.9-1.6,2.3-3,4.2-5.3c1.4,2.8,2.4,4.6,3.3,6.6c4.1,8.6,7.6,17.6,12.4,25.8c4.9,8.3,15.7,10.9,24.5,7c1.2-0.5,2.5-1.1,3.6-1.9
  c4.2-2.9,8.4-3.3,13-1c6,2.9,11.7,1.1,17.1-2.2c2.8-1.7,5.5-2.1,8.8-1c9.5,3.2,18.5,2.9,26.2-4.7c3.4-3.4,7.2-6.4,11-9.3
  c4.9-3.8,6.9-8.7,6.7-14.8c-0.3-8.8-0.7-17.7-0.6-26.5c0.1-6.3-5.9-6.2-8.9-6.5c0.5-0.9,0.9-1.7,1.3-2.1
  c10.7-11.1,21.9-21.8,32.4-33c10.4-11.1,19.1-23.6,23.3-38.4c1.2-4.3,1.1-9.1,1.3-13.7c0.2-6.2,2.9-11.2,7.4-15.4
  c6.6-6.1,13-12.4,21.9-15.3c0.1-0.6,0.1-1.2,0.2-1.8c0,0-7.6-28.6-24.6-31.9c-17-3.2-52.8-12.8-59.2-5.9c-0.5,0.6-1,1.1-1.3,1.5
  c-0.9,1.1-1.9,2.1-2.8,3.1c-9.1,9.1-17.9,18.5-27.3,27.3c-22.8,21.4-45.8,42.7-68.8,63.8c-2.3,2.1-5.8,3-8.3,5
  c-8.9,6.7-17.4,13.7-26.4,20.3c-4.8,3.6-5.5,8.4-6,13.7c-0.3,3-1,6.1-1.7,9c-3.3,13.3-8.6,26-15.5,37.8
  c-11.2,19.2-16.2,40.4-21.2,61.7c-2.8,11.9-11.7,38.4-11.9,39.6c2.1,3,4.2,4.6,5.8,4.7C177.8,544.7,178.9,544.6,181.1,543.5z"/>
<path d="M182.2,543.2c14.5-7.5,23-19.5,27.6-34.9c2-6.6,4.1-13.2,7.1-19.3c6.9-13.9,14.4-27.5,21.8-41.2c0.9-1.6,2.3-3,4.2-5.3
  c1.4,2.8,2.4,4.6,3.3,6.6c4.1,8.6,7.6,17.6,12.4,25.8c4.9,8.3,15.7,10.9,24.5,7c1.2-0.5,2.5-1.1,3.6-1.9c4.2-2.9,8.4-3.3,13-1
  c6,2.9,11.7,1.1,17.1-2.2c2.8-1.7,5.5-2.1,8.8-1c9.5,3.2,18.5,2.9,26.2-4.7c3.4-3.4,7.2-6.4,11-9.3c4.9-3.8,6.9-8.7,6.7-14.8
  c-0.3-8.8-0.7-17.7-0.6-26.5c0.1-6.3-5.9-6.2-8.9-6.5c0.5-0.9,0.9-1.7,1.3-2.1c10.7-11.1,21.9-21.8,32.4-33
  c10.4-11.1,19.1-23.6,23.3-38.4c1.2-4.3,1.1-9.1,1.3-13.7c0.2-6.2,2.9-11.2,7.4-15.4c6.6-6.1,13-12.4,21.9-15.3
  c0.1-0.6,0.1-1.2,0.2-1.8c0,0-7.6-28.6-24.6-31.9c-17-3.2-52.8-12.8-59.2-5.9c-0.5,0.6-1,1.1-1.3,1.5c-0.9,1.1-1.9,2.1-2.8,3.1
  c-9.1,9.1-17.9,18.5-27.3,27.3c-22.8,21.4-45.8,42.7-68.8,63.8c-2.3,2.1-5.8,3-8.3,5c-8.9,6.7-17.4,13.7-26.4,20.3
  c-4.8,3.6-5.5,8.4-6,13.7c-0.3,3-1,6.1-1.7,9c-3.3,13.3-8.6,26-15.5,37.8c-11.2,19.2-16.2,40.4-21.2,61.7
  c-2.8,11.9-11.7,38.4-11.9,39.6c2.1,3,4.2,4.6,5.8,4.7C178.9,544.4,180,544.3,182.2,543.2z M183,512.8c0,0,4.4,4.9,1.8,10.3
  c-2.7,5.6-8.8,12.2-8.8,12.2L183,512.8z M242.4,420.1c-2.2-6.4-5.1-12.8-8.7-18.6c-7.5-11.9-7.4-15,2.9-24.5
  c3.2-2.9,6.5-5.7,9.9-8.5c12.9-10.7,25.9-21.3,38.7-32.1c8.2-6.8,16-14.1,24.2-20.8c18.1-14.7,34.2-31.4,49.4-49
  c2.1-2.4,4.1-5,6.1-7.5c0.1,0,68.3-3.3,75.3,27.1c-3.2,3.1-6.1,5.9-8.9,8.9c-4.1,4.4-7.9,9-12.1,13.3c-1.5,1.5-3.8,2.2-5.7,3.4
  c-0.9,0.6-1.9,1.3-2.3,2.1c-1.2,3.4-2.2,6.8-3.3,10.2c-1.2,3.9-2.2,7.2-0.8,11.8c1.3,4.4-0.7,10-2,14.8c-2.7,9.9-8.2,18.3-15.2,25.7
  c-10.7,11.3-21.8,22.3-32.7,33.4c-0.5,0.5-1.5,0.7-2.8,1.4c0-2.4-0.1-4.3-0.1-6.1c-0.2-0.1-0.4-0.1-0.6-0.2
  c-1.4,6.3-2.8,12.5-4.5,19.9c-3.5-3.6-6.1-6.2-8.7-8.9c-0.4,0.3-0.8,0.6-1.2,0.9c3.1,5.2,6.3,10.5,9.7,16.1c-5.3,2.5-10-0.5-15-0.1
  c9.5,7.3,15.9,15.5,8.6,28.3c0.5,0,1.1,0,1.6-0.1c1.1-2.8,2.4-5.5,3.4-8.4c1.1-3,1.7-6.2,5.2-6.2c-1.1-2.6-3.7-5.6-3.1-7.7
  c1.7-6.2,4.6-12.1,7.3-18.1c0.3-0.6,1.1-2.7,1.9-4.8c2.4,0.1,6.3,0.4,6.4,6.6c0.1,7.9,0,15.9,0.3,23.8c0.2,5.9-1.5,10.4-6.7,13.7
  c-4.7,2.9-9,6.5-13.6,9.6c-10.9,7.3-20.7,4.5-25.9-7.5c-4.6-10.6-8.7-21.3-13.3-31.9c-1.5-3.3-4-6.2-6-9.3c-0.5,0.3-1,0.5-1.5,0.8
  c0.6,1.9,1.1,3.9,1.9,5.7c5.8,13.5,11.6,26.9,17.5,40.4c1.3,2.9,0,4.1-2.2,5.4c-11.7,7-21.9,3.1-27.4-8.9
  c-6.1-13.2-11.7-26.6-18.1-39.6c-3-6.3-7.2-12.1-10.9-18c-0.7-1.1-1.9-1.9-2.8-2.8c-0.4,0.3-0.7,0.6-1.1,0.9
  c0.8,1.3,1.6,2.6,2.3,3.9c3.3,6.3,6.8,12.6,9.9,19.1c7.3,15.1,14.5,30.2,21.8,45.3c0.3,0.7,0.6,1.4,1,2.3
  c-8.7,3.3-17.3,8.4-25.9,0.7c-3.1-2.8-6.1-6.4-7.5-10.3C252.1,450.6,247.6,435.3,242.4,420.1z M180.3,540.8
  c-0.2,0.1-0.5,0.3-0.8,0.7c-1.8,0.4-2.5-0.6-2.7-1.6c1.1-0.6,1.9-1.8,2.6-2.8c3-4.6,6-9.4,7.9-14.5c1-2.7,0.1-6.2-0.2-9.3
  c-0.2-2.3-1.3-4.6-1-6.8c2.4-18.5,10.2-35.6,15.2-53.4c0.5-1.8,1.6-3.5,2.6-5.2c2.1-3.5,4.6-6.7,6.3-10.3c5.2-10.9,10-22,15.1-33
  c1-2.3,2.4-4.4,3.7-6.6c0.5,0.1,0.9,0.2,1.4,0.3c1,2.4,2.2,4.8,2.9,7.4c2.1,7.6,4.3,15.3,5.8,23c0.6,3,0.3,6.6-0.9,9.3
  c-3.1,7.3-7.4,14.1-10.5,21.3c-7.6,17.5-14.9,35.2-22.4,52.8c-0.8,1.9-1.7,3.8-2.7,5.7C197.3,527.5,191.5,536.8,180.3,540.8z"/>
</svg>
